<svg xmlns="http://www.w3.org/2000/svg" viewBox="0 0 166.19 65.93"><defs><style>.cls-1{fill:#fff;}</style></defs><title>logo-menu</title><g id="Camada_2" data-name="Camada 2"><g id="device_frames" data-name="device frames"><path class="cls-1" d="M33,31.54h-.08v4.34H33a6.58,6.58,0,0,1,6.57,6.57V55A6.57,6.57,0,0,1,26.4,55V43.88h0V39.54H10.92a6.57,6.57,0,1,1,0-13.14h5.49a2.17,2.17,0,0,0,0-4.32H10.92a10.92,10.92,0,1,0,0,21.83H22V55a10.92,10.92,0,0,0,21.83,0V42.46A10.92,10.92,0,0,0,33,31.54"/><path class="cls-1" d="M55,22H43.88V10.91a10.92,10.92,0,0,0-21.83,0V25A10.94,10.94,0,0,0,33,35.89H33v0a16.15,16.15,0,0,0,2-.45c2.44-.66,6.33-.24,7.93,2.77a10.9,10.9,0,0,0-10-6.62H33A6.59,6.59,0,0,1,26.4,25v-14a6.57,6.57,0,0,1,13.14,0V26.39H55a6.57,6.57,0,0,1,0,13.14H49.51a2.18,2.18,0,1,0,0,4.35H55A10.92,10.92,0,0,0,55,22"/><polygon class="cls-1" points="69.95 11.74 70.81 11.74 70.81 9.6 72.78 9.6 72.78 8.87 70.81 8.87 70.81 7.23 72.91 7.23 72.91 6.51 69.95 6.51 69.95 11.74"/><path class="cls-1" d="M77.11,9.81q0,1.27-1.21,1.27a1.24,1.24,0,0,1-.92-.31,1.33,1.33,0,0,1-.3-1V6.51h-.86V9.88a1.86,1.86,0,0,0,.54,1.42,2.11,2.11,0,0,0,1.52.52A2.48,2.48,0,0,0,77,11.58a1.66,1.66,0,0,0,.72-.67,2,2,0,0,0,.25-1V6.51h-.86Z"/><path class="cls-1" d="M82.89,9.25q0,.29,0,.81c0,.34,0,.54,0,.6h0L80.35,6.51h-1v5.24h.78V9c0-.37,0-.77,0-1.22l0-.23h0l2.58,4.17h1V6.51h-.78Z"/><path class="cls-1" d="M86.67,6.51H85.05v5.24h1.47a2.89,2.89,0,0,0,2.07-.69,2.6,2.6,0,0,0,.72-2,2.52,2.52,0,0,0-.7-1.9,2.67,2.67,0,0,0-1.95-.67M86.52,11h-.61V7.22h.74q1.76,0,1.76,1.88A1.68,1.68,0,0,1,86.52,11"/><path class="cls-1" d="M91.71,6.49l-2,5.26h.9l.51-1.45h2l.52,1.45h.91l-2-5.26Zm-.29,3.07.47-1.37a7.5,7.5,0,0,0,.28-1c0,.09.07.24.13.45s.11.36.15.45l.49,1.43Z"/><path class="cls-1" d="M97.52,7.17a2,2,0,0,1,.62.1,4.34,4.34,0,0,1,.56.22L99,6.77a3.3,3.3,0,0,0-1.48-.33,2.6,2.6,0,0,0-1.33.33,2.14,2.14,0,0,0-.87.94A3.26,3.26,0,0,0,95,9.13a2.92,2.92,0,0,0,.62,2,2.07,2.07,0,0,0,1.34.67l-.28.55q.64.09.64.4a.23.23,0,0,1-.11.22.68.68,0,0,1-.31.06,1.76,1.76,0,0,1-.44,0v.49a1.66,1.66,0,0,0,.43.05q1.09,0,1.09-.8a.57.57,0,0,0-.16-.41.91.91,0,0,0-.45-.24l.12-.25a4,4,0,0,0,1.3-.23v-.74a6.67,6.67,0,0,1-.65.17,3.19,3.19,0,0,1-.65.07,1.43,1.43,0,0,1-1.18-.49,2.25,2.25,0,0,1-.41-1.46,2.25,2.25,0,0,1,.42-1.45,1.42,1.42,0,0,1,1.16-.52"/><path class="cls-1" d="M101.08,5.68a.6.6,0,0,1,.25.06l.27.14.28.14a.75.75,0,0,0,.3.06.76.76,0,0,0,.61-.27,1.33,1.33,0,0,0,.28-.75h-.45c-.07.28-.19.41-.38.41L102,5.42l-.27-.14-.29-.14a.76.76,0,0,0-.3-.06.77.77,0,0,0-.6.26,1.27,1.27,0,0,0-.28.76h.44c.07-.28.2-.41.39-.41"/><path class="cls-1" d="M101.21,6.49l-2,5.26h.91l.51-1.45h2l.52,1.45h.91l-2-5.26Zm-.29,3.07.47-1.37a8,8,0,0,0,.28-1c0,.09.07.24.13.45s.11.36.15.45l.49,1.43Z"/><path class="cls-1" d="M108.81,7.13A2.32,2.32,0,0,0,107,6.42a2.36,2.36,0,0,0-1.83.7,2.83,2.83,0,0,0-.64,2,2.86,2.86,0,0,0,.64,2,2.68,2.68,0,0,0,3.63,0,2.86,2.86,0,0,0,.64-2,2.87,2.87,0,0,0-.64-2m-.66,3.46a1.59,1.59,0,0,1-2.31,0,2.36,2.36,0,0,1-.39-1.47,2.32,2.32,0,0,1,.39-1.46,1.39,1.39,0,0,1,1.16-.5,1.36,1.36,0,0,1,1.15.5,2.36,2.36,0,0,1,.38,1.46,2.36,2.36,0,0,1-.39,1.47"/><polygon class="cls-1" points="69.95 32.69 69.95 14.87 72.87 14.87 72.87 30.19 80.42 30.19 80.42 32.69 69.95 32.69"/><path class="cls-1" d="M89.07,32.93a6.52,6.52,0,0,1-4.92-1.83A7,7,0,0,1,82.38,26,7.65,7.65,0,0,1,84,20.85,5.7,5.7,0,0,1,88.55,19a5.56,5.56,0,0,1,4.22,1.62A6.21,6.21,0,0,1,94.32,25v1.55h-9a4.42,4.42,0,0,0,1.06,3,3.7,3.7,0,0,0,2.82,1.05,10.24,10.24,0,0,0,2.22-.22,11.6,11.6,0,0,0,2.21-.75V32a8.75,8.75,0,0,1-2.12.71,13,13,0,0,1-2.45.21m-.52-11.8a2.88,2.88,0,0,0-2.19.87,4.12,4.12,0,0,0-1,2.53H91.5A3.75,3.75,0,0,0,90.69,22a2.75,2.75,0,0,0-2.14-.86"/><path class="cls-1" d="M106,32.69l-.57-1.88h-.1a5.51,5.51,0,0,1-2,1.68,6.18,6.18,0,0,1-2.53.44,4.29,4.29,0,0,1-3.1-1.07,4,4,0,0,1-1.12-3,3.56,3.56,0,0,1,1.55-3.14,8.89,8.89,0,0,1,4.72-1.16l2.33-.08v-.72a2.73,2.73,0,0,0-.6-1.93,2.46,2.46,0,0,0-1.87-.64,6.46,6.46,0,0,0-2,.3,15.25,15.25,0,0,0-1.83.72l-.92-2a10,10,0,0,1,2.4-.87,11,11,0,0,1,2.46-.3,5.84,5.84,0,0,1,3.88,1.12,4.4,4.4,0,0,1,1.31,3.53v9.08Zm-4.27-1.95a3.55,3.55,0,0,0,2.51-.87,3.16,3.16,0,0,0,.94-2.44V26.25l-1.73.07a5.9,5.9,0,0,0-2.95.68,2.05,2.05,0,0,0-.92,1.84,1.8,1.8,0,0,0,.54,1.4,2.3,2.3,0,0,0,1.61.49"/><path class="cls-1" d="M123.92,32.69H121V24.4a3.62,3.62,0,0,0-.63-2.33,2.43,2.43,0,0,0-2-.77,3.17,3.17,0,0,0-2.66,1.07,5.93,5.93,0,0,0-.84,3.6v6.72h-2.87V19.21h2.24l.4,1.77h.15a4,4,0,0,1,1.73-1.48,5.77,5.77,0,0,1,2.49-.53q4.85,0,4.85,4.94Z"/><path class="cls-1" d="M132.45,32.93a4.7,4.7,0,0,1-3.94-1.83A8.2,8.2,0,0,1,127.1,26a8.24,8.24,0,0,1,1.43-5.16,4.74,4.74,0,0,1,4-1.85,4.65,4.65,0,0,1,4,2h.15a17,17,0,0,1-.21-2.29V13.72h2.88v19h-2.25l-.5-1.77h-.14a4.58,4.58,0,0,1-4,2m.77-2.32a3.12,3.12,0,0,0,2.57-1,5.24,5.24,0,0,0,.83-3.23V26a6.06,6.06,0,0,0-.83-3.62,3.08,3.08,0,0,0-2.6-1.07,2.63,2.63,0,0,0-2.33,1.23,6.28,6.28,0,0,0-.82,3.49,6.13,6.13,0,0,0,.79,3.42,2.67,2.67,0,0,0,2.38,1.17"/><path class="cls-1" d="M150.3,19a6.94,6.94,0,0,1,1.43.12l-.28,2.67a5.37,5.37,0,0,0-1.27-.15,3.67,3.67,0,0,0-2.79,1.12,4.06,4.06,0,0,0-1.07,2.91v7h-2.86V19.21h2.24l.38,2.38h.15A5.32,5.32,0,0,1,148,19.67,4.16,4.16,0,0,1,150.3,19"/><path class="cls-1" d="M166.19,25.92a7.36,7.36,0,0,1-1.69,5.16,6.07,6.07,0,0,1-4.72,1.85,6.46,6.46,0,0,1-3.34-.85,5.63,5.63,0,0,1-2.23-2.45,8.34,8.34,0,0,1-.78-3.71,7.32,7.32,0,0,1,1.68-5.12A6.1,6.1,0,0,1,159.85,19a6,6,0,0,1,4.63,1.88,7.29,7.29,0,0,1,1.7,5.08m-9.81,0q0,4.67,3.45,4.67t3.41-4.67q0-4.62-3.44-4.62a2.93,2.93,0,0,0-2.61,1.2,6,6,0,0,0-.81,3.42"/><path class="cls-1" d="M70,35.33h5.43q3.78,0,5.46,1.1a3.86,3.86,0,0,1,1.68,3.48,4.21,4.21,0,0,1-.83,2.66,3.68,3.68,0,0,1-2.38,1.34V44a4.71,4.71,0,0,1,2.83,1.43,4.34,4.34,0,0,1,.91,2.9,4.7,4.7,0,0,1-1.72,3.86,7.38,7.38,0,0,1-4.79,1.4H70Zm3,7.56h2.88a4.92,4.92,0,0,0,2.74-.59,2.27,2.27,0,0,0,.86-2,2,2,0,0,0-.93-1.86,5.81,5.81,0,0,0-3-.58H72.95Zm0,2.43v5.8h3.18A4.69,4.69,0,0,0,79,50.4a2.65,2.65,0,0,0,1-2.27,2.41,2.41,0,0,0-1-2.12,5.18,5.18,0,0,0-3-.69Z"/><path class="cls-1" d="M92.61,53.88A6.7,6.7,0,0,1,87.56,52a7.15,7.15,0,0,1-1.82-5.19,7.85,7.85,0,0,1,1.69-5.33,5.85,5.85,0,0,1,4.64-1.94A5.7,5.7,0,0,1,96.4,41.2,6.36,6.36,0,0,1,98,45.78v1.59H88.77a4.55,4.55,0,0,0,1.09,3.1,3.78,3.78,0,0,0,2.89,1.08A10.72,10.72,0,0,0,95,51.32a12.07,12.07,0,0,0,2.27-.77v2.39a8.9,8.9,0,0,1-2.18.73,13.27,13.27,0,0,1-2.52.21m-.54-12.12a3,3,0,0,0-2.25.89,4.23,4.23,0,0,0-1,2.59H95.1a3.82,3.82,0,0,0-.82-2.59,2.82,2.82,0,0,0-2.2-.89"/><polygon class="cls-1" points="110.58 53.63 100.08 53.63 100.08 51.81 107.08 42.04 100.51 42.04 100.51 39.79 110.38 39.79 110.38 41.84 103.54 51.38 110.58 51.38 110.58 53.63"/><path class="cls-1" d="M119.63,53.88A6.7,6.7,0,0,1,114.58,52a7.15,7.15,0,0,1-1.82-5.19,7.84,7.84,0,0,1,1.69-5.33,5.84,5.84,0,0,1,4.64-1.94,5.7,5.7,0,0,1,4.33,1.67A6.36,6.36,0,0,1,125,45.78v1.59h-9.22a4.55,4.55,0,0,0,1.09,3.1,3.78,3.78,0,0,0,2.89,1.08,10.71,10.71,0,0,0,2.28-.23,12.13,12.13,0,0,0,2.27-.77v2.39a8.88,8.88,0,0,1-2.18.73,13.27,13.27,0,0,1-2.52.21m-.54-12.12a3,3,0,0,0-2.25.89,4.23,4.23,0,0,0-1,2.59h6.28a3.82,3.82,0,0,0-.83-2.59,2.83,2.83,0,0,0-2.2-.89"/><path class="cls-1" d="M135.38,39.54a7.25,7.25,0,0,1,1.46.12l-.29,2.74a5.46,5.46,0,0,0-1.3-.15,3.76,3.76,0,0,0-2.86,1.15,4.16,4.16,0,0,0-1.09,3v7.23h-2.94V39.79h2.3l.39,2.44h.15a5.49,5.49,0,0,1,1.79-2,4.3,4.3,0,0,1,2.39-.73"/><path class="cls-1" d="M146.43,39.54a7.24,7.24,0,0,1,1.46.12l-.29,2.74a5.48,5.48,0,0,0-1.3-.15,3.76,3.76,0,0,0-2.86,1.15,4.16,4.16,0,0,0-1.09,3v7.23h-2.94V39.79h2.3l.39,2.44h.15a5.47,5.47,0,0,1,1.8-2,4.28,4.28,0,0,1,2.38-.73"/><path class="cls-1" d="M159.12,53.63l-.59-1.93h-.1a5.73,5.73,0,0,1-2,1.72,6.38,6.38,0,0,1-2.6.46,4.41,4.41,0,0,1-3.18-1.1,4.11,4.11,0,0,1-1.15-3.12,3.67,3.67,0,0,1,1.59-3.23,9.16,9.16,0,0,1,4.84-1.19l2.39-.07v-.74a2.78,2.78,0,0,0-.62-2,2.52,2.52,0,0,0-1.92-.66,6.71,6.71,0,0,0-2,.31,15.61,15.61,0,0,0-1.88.74l-1-2.1a10.26,10.26,0,0,1,2.47-.89,11.28,11.28,0,0,1,2.53-.31,6,6,0,0,1,4,1.15,4.5,4.5,0,0,1,1.35,3.62v9.33Zm-4.38-2a3.65,3.65,0,0,0,2.57-.89,3.24,3.24,0,0,0,1-2.51V47l-1.78.08a6.1,6.1,0,0,0-3,.7,2.11,2.11,0,0,0-.94,1.9,1.85,1.85,0,0,0,.55,1.43,2.37,2.37,0,0,0,1.65.51"/><path class="cls-1" d="M70,55.42h1.85a2.56,2.56,0,0,1,2.79,2.65,2.68,2.68,0,0,1-2.91,2.65H70Zm.72,4.63h.91a2,2,0,0,0,2.25-2,1.9,1.9,0,0,0-2.08-2H70.74Z"/><polygon class="cls-1" points="75.69 55.42 79.12 55.42 79.12 56.1 76.41 56.1 76.41 57.68 78.93 57.68 78.93 58.35 76.41 58.35 76.41 60.05 79.25 60.05 79.25 60.73 75.69 60.73 75.69 55.42"/><polygon class="cls-1" points="82.3 55.42 83.38 55.42 85.06 59.44 85.09 59.44 86.76 55.42 87.83 55.42 87.83 60.73 87.11 60.73 87.11 56.37 87.1 56.37 85.31 60.73 84.83 60.73 83.04 56.37 83.02 56.37 83.02 60.73 82.3 60.73 82.3 55.42"/><polygon class="cls-1" points="89.14 55.42 92.57 55.42 92.57 56.1 89.86 56.1 89.86 57.68 92.38 57.68 92.38 58.35 89.86 58.35 89.86 60.05 92.7 60.05 92.7 60.73 89.14 60.73 89.14 55.42"/><polygon class="cls-1" points="93.72 55.42 94.67 55.42 97.59 59.78 97.6 59.78 97.6 55.42 98.32 55.42 98.32 60.73 97.41 60.73 94.46 56.37 94.44 56.37 94.44 60.73 93.72 60.73 93.72 55.42"/><polygon class="cls-1" points="99.69 55.42 103.11 55.42 103.11 56.1 100.4 56.1 100.4 57.68 102.92 57.68 102.92 58.35 100.4 58.35 100.4 60.05 103.25 60.05 103.25 60.73 99.69 60.73 99.69 55.42"/><polygon class="cls-1" points="103.82 60.05 106.84 56.1 103.91 56.1 103.91 55.42 107.74 55.42 107.74 56.1 104.73 60.05 107.78 60.05 107.78 60.73 103.82 60.73 103.82 60.05"/><polygon class="cls-1" points="108.71 55.42 112.13 55.42 112.13 56.1 109.42 56.1 109.42 57.68 111.94 57.68 111.94 58.35 109.42 58.35 109.42 60.05 112.27 60.05 112.27 60.73 108.71 60.73 108.71 55.42"/><path class="cls-1" d="M113.44,59.62a1.33,1.33,0,0,0,1.12.57,1,1,0,0,0,1.06-.88c0-1.22-2.62-.47-2.62-2.53a1.61,1.61,0,0,1,1.8-1.48,1.84,1.84,0,0,1,1.53.61l-.58.53a1.11,1.11,0,0,0-.94-.46c-.79,0-1,.48-1,.81,0,1.34,2.62.54,2.62,2.45a1.68,1.68,0,0,1-1.84,1.64,2,2,0,0,1-1.69-.73Z"/></g></g></svg>